<mxfile host="app.diagrams.net" modified="2023-07-04T16:23:12.374Z" agent="Mozilla/5.0 (X11; Linux x86_64; rv:103.0) Gecko/20100101 Firefox/103.0" etag="YSou1_OdWnu6VY6izGw9" version="21.5.2" type="device">
  <diagram id="UesS2cwio1J52GAt_Yvh" name="Page-1">
    <mxGraphModel dx="371" dy="305" grid="1" gridSize="10" guides="1" tooltips="1" connect="1" arrows="1" fold="1" page="1" pageScale="1" pageWidth="850" pageHeight="1100" math="0" shadow="0">
      <root>
        <mxCell id="0" />
        <mxCell id="1" parent="0" />
        <mxCell id="2VW4hvVGtqt4MNvg6fAc-3" style="edgeStyle=orthogonalEdgeStyle;rounded=0;orthogonalLoop=1;jettySize=auto;html=1;entryX=0.5;entryY=0;entryDx=0;entryDy=0;" edge="1" parent="1" source="3NaMu6--Hrhzoy9EJNJ2-1" target="2VW4hvVGtqt4MNvg6fAc-2">
          <mxGeometry relative="1" as="geometry" />
        </mxCell>
        <mxCell id="3NaMu6--Hrhzoy9EJNJ2-1" value="Start" style="ellipse;whiteSpace=wrap;html=1;" parent="1" vertex="1">
          <mxGeometry x="400" width="40" height="20" as="geometry" />
        </mxCell>
        <mxCell id="3NaMu6--Hrhzoy9EJNJ2-7" value="suggest initial inputs" style="shape=parallelogram;perimeter=parallelogramPerimeter;whiteSpace=wrap;html=1;fixedSize=1;" parent="1" vertex="1">
          <mxGeometry x="345" y="65" width="150" height="20" as="geometry" />
        </mxCell>
        <mxCell id="3NaMu6--Hrhzoy9EJNJ2-10" style="edgeStyle=orthogonalEdgeStyle;rounded=0;orthogonalLoop=1;jettySize=auto;html=1;exitX=0.5;exitY=1;exitDx=0;exitDy=0;entryX=0.5;entryY=0;entryDx=0;entryDy=0;" parent="1" source="3NaMu6--Hrhzoy9EJNJ2-8" target="3NaMu6--Hrhzoy9EJNJ2-9" edge="1">
          <mxGeometry relative="1" as="geometry" />
        </mxCell>
        <mxCell id="3NaMu6--Hrhzoy9EJNJ2-8" value="get inputs from user" style="shape=parallelogram;perimeter=parallelogramPerimeter;whiteSpace=wrap;html=1;fixedSize=1;" parent="1" vertex="1">
          <mxGeometry x="350" y="100" width="140" height="20" as="geometry" />
        </mxCell>
        <mxCell id="3NaMu6--Hrhzoy9EJNJ2-14" style="edgeStyle=orthogonalEdgeStyle;rounded=0;orthogonalLoop=1;jettySize=auto;html=1;exitX=0;exitY=0.5;exitDx=0;exitDy=0;entryX=0.5;entryY=0;entryDx=0;entryDy=0;" parent="1" source="3NaMu6--Hrhzoy9EJNJ2-9" target="3NaMu6--Hrhzoy9EJNJ2-13" edge="1">
          <mxGeometry relative="1" as="geometry" />
        </mxCell>
        <mxCell id="3NaMu6--Hrhzoy9EJNJ2-15" style="edgeStyle=orthogonalEdgeStyle;rounded=0;orthogonalLoop=1;jettySize=auto;html=1;exitX=1;exitY=0.5;exitDx=0;exitDy=0;entryX=0.5;entryY=0;entryDx=0;entryDy=0;" parent="1" source="3NaMu6--Hrhzoy9EJNJ2-9" target="3NaMu6--Hrhzoy9EJNJ2-12" edge="1">
          <mxGeometry relative="1" as="geometry" />
        </mxCell>
        <mxCell id="3NaMu6--Hrhzoy9EJNJ2-9" value="run main &amp;amp;&amp;amp; getData.py" style="rounded=0;whiteSpace=wrap;html=1;" parent="1" vertex="1">
          <mxGeometry x="360" y="130" width="120" height="30" as="geometry" />
        </mxCell>
        <mxCell id="etrXNk_KjkjhekKQuepQ-22" style="edgeStyle=orthogonalEdgeStyle;rounded=0;orthogonalLoop=1;jettySize=auto;html=1;exitX=0.5;exitY=1;exitDx=0;exitDy=0;entryX=0.5;entryY=0;entryDx=0;entryDy=0;" parent="1" source="3NaMu6--Hrhzoy9EJNJ2-12" target="etrXNk_KjkjhekKQuepQ-21" edge="1">
          <mxGeometry relative="1" as="geometry" />
        </mxCell>
        <mxCell id="3NaMu6--Hrhzoy9EJNJ2-12" value="Start" style="ellipse;whiteSpace=wrap;html=1;" parent="1" vertex="1">
          <mxGeometry x="500" y="170" width="40" height="20" as="geometry" />
        </mxCell>
        <mxCell id="3NaMu6--Hrhzoy9EJNJ2-23" style="edgeStyle=orthogonalEdgeStyle;rounded=0;orthogonalLoop=1;jettySize=auto;html=1;exitX=0.5;exitY=1;exitDx=0;exitDy=0;entryX=0.5;entryY=0;entryDx=0;entryDy=0;fontSize=10;fontColor=#000000;" parent="1" source="3NaMu6--Hrhzoy9EJNJ2-13" target="3NaMu6--Hrhzoy9EJNJ2-22" edge="1">
          <mxGeometry relative="1" as="geometry" />
        </mxCell>
        <mxCell id="3NaMu6--Hrhzoy9EJNJ2-13" value="Start" style="ellipse;whiteSpace=wrap;html=1;" parent="1" vertex="1">
          <mxGeometry x="300" y="170" width="40" height="20" as="geometry" />
        </mxCell>
        <mxCell id="3NaMu6--Hrhzoy9EJNJ2-17" value="&lt;font style=&quot;font-size: 10px;&quot; color=&quot;#ff33ff&quot;&gt;main&lt;/font&gt;" style="text;html=1;strokeColor=none;fillColor=none;align=center;verticalAlign=middle;whiteSpace=wrap;rounded=0;" parent="1" vertex="1">
          <mxGeometry x="290" y="120" width="60" height="30" as="geometry" />
        </mxCell>
        <mxCell id="3NaMu6--Hrhzoy9EJNJ2-19" value="&lt;font color=&quot;#ff0000&quot;&gt;getData.py&lt;/font&gt;" style="text;html=1;strokeColor=none;fillColor=none;align=center;verticalAlign=middle;whiteSpace=wrap;rounded=0;fontSize=10;fontColor=#FF33FF;" parent="1" vertex="1">
          <mxGeometry x="490" y="130" width="60" height="20" as="geometry" />
        </mxCell>
        <mxCell id="3NaMu6--Hrhzoy9EJNJ2-32" style="edgeStyle=orthogonalEdgeStyle;rounded=0;orthogonalLoop=1;jettySize=auto;html=1;exitX=1;exitY=0.5;exitDx=0;exitDy=0;entryX=1;entryY=0.5;entryDx=0;entryDy=0;fontSize=10;fontColor=#000000;" parent="1" source="3NaMu6--Hrhzoy9EJNJ2-21" target="3NaMu6--Hrhzoy9EJNJ2-22" edge="1">
          <mxGeometry relative="1" as="geometry">
            <Array as="points">
              <mxPoint x="370" y="285" />
              <mxPoint x="370" y="220" />
            </Array>
          </mxGeometry>
        </mxCell>
        <mxCell id="etrXNk_KjkjhekKQuepQ-31" style="edgeStyle=orthogonalEdgeStyle;rounded=0;orthogonalLoop=1;jettySize=auto;html=1;exitX=0.5;exitY=1;exitDx=0;exitDy=0;entryX=0.5;entryY=0;entryDx=0;entryDy=0;" parent="1" source="3NaMu6--Hrhzoy9EJNJ2-21" target="etrXNk_KjkjhekKQuepQ-1" edge="1">
          <mxGeometry relative="1" as="geometry" />
        </mxCell>
        <mxCell id="3NaMu6--Hrhzoy9EJNJ2-21" value="&lt;font color=&quot;#000000&quot;&gt;Baton?&lt;/font&gt;" style="rhombus;whiteSpace=wrap;html=1;fontSize=10;fontColor=#FF0000;" parent="1" vertex="1">
          <mxGeometry x="295" y="260" width="50" height="50" as="geometry" />
        </mxCell>
        <mxCell id="3NaMu6--Hrhzoy9EJNJ2-24" style="edgeStyle=orthogonalEdgeStyle;rounded=0;orthogonalLoop=1;jettySize=auto;html=1;exitX=0.5;exitY=1;exitDx=0;exitDy=0;entryX=0.5;entryY=0;entryDx=0;entryDy=0;fontSize=10;fontColor=#000000;" parent="1" source="3NaMu6--Hrhzoy9EJNJ2-22" target="3NaMu6--Hrhzoy9EJNJ2-21" edge="1">
          <mxGeometry relative="1" as="geometry" />
        </mxCell>
        <mxCell id="3NaMu6--Hrhzoy9EJNJ2-28" style="edgeStyle=orthogonalEdgeStyle;rounded=0;orthogonalLoop=1;jettySize=auto;html=1;exitX=0;exitY=0.5;exitDx=0;exitDy=0;entryX=0;entryY=0;entryDx=0;entryDy=0;fontSize=10;fontColor=#000000;" parent="1" source="3NaMu6--Hrhzoy9EJNJ2-22" target="3NaMu6--Hrhzoy9EJNJ2-9" edge="1">
          <mxGeometry relative="1" as="geometry">
            <Array as="points">
              <mxPoint x="280" y="220" />
              <mxPoint x="280" y="130" />
            </Array>
          </mxGeometry>
        </mxCell>
        <mxCell id="3NaMu6--Hrhzoy9EJNJ2-22" value="Timeout?" style="rhombus;whiteSpace=wrap;html=1;fontSize=10;fontColor=#000000;" parent="1" vertex="1">
          <mxGeometry x="287.5" y="200" width="65" height="40" as="geometry" />
        </mxCell>
        <mxCell id="3NaMu6--Hrhzoy9EJNJ2-25" value="No" style="text;html=1;align=center;verticalAlign=middle;resizable=0;points=[];autosize=1;strokeColor=none;fillColor=none;fontSize=10;fontColor=#000000;" parent="1" vertex="1">
          <mxGeometry x="310" y="230" width="40" height="30" as="geometry" />
        </mxCell>
        <mxCell id="3NaMu6--Hrhzoy9EJNJ2-26" value="Yes" style="text;html=1;align=center;verticalAlign=middle;resizable=0;points=[];autosize=1;strokeColor=none;fillColor=none;fontSize=10;fontColor=#000000;" parent="1" vertex="1">
          <mxGeometry x="270" y="220" width="40" height="30" as="geometry" />
        </mxCell>
        <mxCell id="3NaMu6--Hrhzoy9EJNJ2-31" value="Yes" style="text;html=1;strokeColor=none;fillColor=none;align=center;verticalAlign=middle;whiteSpace=wrap;rounded=0;fontSize=10;fontColor=#000000;" parent="1" vertex="1">
          <mxGeometry x="320" y="310" width="30" height="10" as="geometry" />
        </mxCell>
        <mxCell id="3NaMu6--Hrhzoy9EJNJ2-33" value="No" style="text;html=1;align=center;verticalAlign=middle;resizable=0;points=[];autosize=1;strokeColor=none;fillColor=none;fontSize=10;fontColor=#000000;" parent="1" vertex="1">
          <mxGeometry x="330" y="260" width="40" height="30" as="geometry" />
        </mxCell>
        <mxCell id="etrXNk_KjkjhekKQuepQ-4" style="edgeStyle=orthogonalEdgeStyle;rounded=0;orthogonalLoop=1;jettySize=auto;html=1;exitX=0.5;exitY=1;exitDx=0;exitDy=0;entryX=0.5;entryY=0;entryDx=0;entryDy=0;" parent="1" source="etrXNk_KjkjhekKQuepQ-1" target="etrXNk_KjkjhekKQuepQ-3" edge="1">
          <mxGeometry relative="1" as="geometry" />
        </mxCell>
        <mxCell id="etrXNk_KjkjhekKQuepQ-1" value="Load data into Stock object" style="shape=parallelogram;perimeter=parallelogramPerimeter;whiteSpace=wrap;html=1;fixedSize=1;" parent="1" vertex="1">
          <mxGeometry x="230" y="330" width="180" height="20" as="geometry" />
        </mxCell>
        <mxCell id="etrXNk_KjkjhekKQuepQ-6" style="edgeStyle=orthogonalEdgeStyle;rounded=0;orthogonalLoop=1;jettySize=auto;html=1;exitX=0.5;exitY=1;exitDx=0;exitDy=0;entryX=0.5;entryY=0;entryDx=0;entryDy=0;" parent="1" source="etrXNk_KjkjhekKQuepQ-3" target="etrXNk_KjkjhekKQuepQ-5" edge="1">
          <mxGeometry relative="1" as="geometry" />
        </mxCell>
        <mxCell id="etrXNk_KjkjhekKQuepQ-3" value="Write Stock to bin" style="shape=parallelogram;perimeter=parallelogramPerimeter;whiteSpace=wrap;html=1;fixedSize=1;" parent="1" vertex="1">
          <mxGeometry x="250" y="360" width="140" height="20" as="geometry" />
        </mxCell>
        <mxCell id="etrXNk_KjkjhekKQuepQ-9" style="edgeStyle=orthogonalEdgeStyle;rounded=0;orthogonalLoop=1;jettySize=auto;html=1;exitX=0.5;exitY=1;exitDx=0;exitDy=0;entryX=0.5;entryY=0;entryDx=0;entryDy=0;" parent="1" source="etrXNk_KjkjhekKQuepQ-5" target="etrXNk_KjkjhekKQuepQ-7" edge="1">
          <mxGeometry relative="1" as="geometry" />
        </mxCell>
        <mxCell id="etrXNk_KjkjhekKQuepQ-5" value="Refresh Portfolio Data" style="shape=parallelogram;perimeter=parallelogramPerimeter;whiteSpace=wrap;html=1;fixedSize=1;" parent="1" vertex="1">
          <mxGeometry x="240" y="390" width="160" height="20" as="geometry" />
        </mxCell>
        <mxCell id="etrXNk_KjkjhekKQuepQ-11" style="edgeStyle=orthogonalEdgeStyle;rounded=0;orthogonalLoop=1;jettySize=auto;html=1;exitX=0.5;exitY=1;exitDx=0;exitDy=0;entryX=0.5;entryY=0;entryDx=0;entryDy=0;" parent="1" source="etrXNk_KjkjhekKQuepQ-7" edge="1">
          <mxGeometry relative="1" as="geometry">
            <mxPoint x="320" y="450" as="targetPoint" />
          </mxGeometry>
        </mxCell>
        <mxCell id="etrXNk_KjkjhekKQuepQ-7" value="Print" style="shape=parallelogram;perimeter=parallelogramPerimeter;whiteSpace=wrap;html=1;fixedSize=1;" parent="1" vertex="1">
          <mxGeometry x="290" y="420" width="60" height="20" as="geometry" />
        </mxCell>
        <mxCell id="etrXNk_KjkjhekKQuepQ-38" style="edgeStyle=orthogonalEdgeStyle;rounded=0;orthogonalLoop=1;jettySize=auto;html=1;exitX=0.5;exitY=1;exitDx=0;exitDy=0;entryX=0.5;entryY=0;entryDx=0;entryDy=0;" parent="1" target="etrXNk_KjkjhekKQuepQ-36" edge="1">
          <mxGeometry relative="1" as="geometry">
            <mxPoint x="320" y="480" as="sourcePoint" />
          </mxGeometry>
        </mxCell>
        <mxCell id="etrXNk_KjkjhekKQuepQ-50" style="edgeStyle=orthogonalEdgeStyle;rounded=0;orthogonalLoop=1;jettySize=auto;html=1;exitX=0.5;exitY=1;exitDx=0;exitDy=0;entryX=0.5;entryY=0;entryDx=0;entryDy=0;" parent="1" source="etrXNk_KjkjhekKQuepQ-16" target="etrXNk_KjkjhekKQuepQ-18" edge="1">
          <mxGeometry relative="1" as="geometry" />
        </mxCell>
        <mxCell id="etrXNk_KjkjhekKQuepQ-16" value="pass Baton" style="shape=parallelogram;perimeter=parallelogramPerimeter;whiteSpace=wrap;html=1;fixedSize=1;" parent="1" vertex="1">
          <mxGeometry x="269.94" y="680" width="100" height="20" as="geometry" />
        </mxCell>
        <mxCell id="etrXNk_KjkjhekKQuepQ-20" style="edgeStyle=orthogonalEdgeStyle;rounded=0;orthogonalLoop=1;jettySize=auto;html=1;exitX=0;exitY=0.5;exitDx=0;exitDy=0;entryX=0;entryY=0.5;entryDx=0;entryDy=0;" parent="1" source="etrXNk_KjkjhekKQuepQ-18" target="3NaMu6--Hrhzoy9EJNJ2-21" edge="1">
          <mxGeometry relative="1" as="geometry">
            <Array as="points">
              <mxPoint x="200" y="720" />
              <mxPoint x="200" y="285" />
            </Array>
          </mxGeometry>
        </mxCell>
        <mxCell id="etrXNk_KjkjhekKQuepQ-18" value="Pause" style="rounded=0;whiteSpace=wrap;html=1;" parent="1" vertex="1">
          <mxGeometry x="299.97" y="710" width="39.94" height="20" as="geometry" />
        </mxCell>
        <mxCell id="etrXNk_KjkjhekKQuepQ-23" style="edgeStyle=orthogonalEdgeStyle;rounded=0;orthogonalLoop=1;jettySize=auto;html=1;exitX=0.5;exitY=1;exitDx=0;exitDy=0;" parent="1" source="etrXNk_KjkjhekKQuepQ-21" edge="1">
          <mxGeometry relative="1" as="geometry">
            <mxPoint x="520" y="230" as="targetPoint" />
          </mxGeometry>
        </mxCell>
        <mxCell id="etrXNk_KjkjhekKQuepQ-21" value="Log in" style="shape=parallelogram;perimeter=parallelogramPerimeter;whiteSpace=wrap;html=1;fixedSize=1;" parent="1" vertex="1">
          <mxGeometry x="485" y="200" width="70" height="20" as="geometry" />
        </mxCell>
        <mxCell id="etrXNk_KjkjhekKQuepQ-26" style="edgeStyle=orthogonalEdgeStyle;rounded=0;orthogonalLoop=1;jettySize=auto;html=1;exitX=0.5;exitY=1;exitDx=0;exitDy=0;entryX=0.5;entryY=0;entryDx=0;entryDy=0;" parent="1" source="etrXNk_KjkjhekKQuepQ-24" target="etrXNk_KjkjhekKQuepQ-25" edge="1">
          <mxGeometry relative="1" as="geometry" />
        </mxCell>
        <mxCell id="etrXNk_KjkjhekKQuepQ-24" value="Get Each Stock&#39;s Object Data" style="shape=parallelogram;perimeter=parallelogramPerimeter;whiteSpace=wrap;html=1;fixedSize=1;" parent="1" vertex="1">
          <mxGeometry x="422.5" y="230" width="195" height="20" as="geometry" />
        </mxCell>
        <mxCell id="etrXNk_KjkjhekKQuepQ-76" style="edgeStyle=orthogonalEdgeStyle;rounded=0;orthogonalLoop=1;jettySize=auto;html=1;exitX=0.5;exitY=1;exitDx=0;exitDy=0;entryX=0.5;entryY=0;entryDx=0;entryDy=0;fontSize=8;" parent="1" source="etrXNk_KjkjhekKQuepQ-25" target="etrXNk_KjkjhekKQuepQ-74" edge="1">
          <mxGeometry relative="1" as="geometry" />
        </mxCell>
        <mxCell id="etrXNk_KjkjhekKQuepQ-80" style="edgeStyle=orthogonalEdgeStyle;rounded=0;orthogonalLoop=1;jettySize=auto;html=1;exitX=1;exitY=0.5;exitDx=0;exitDy=0;fontSize=8;" parent="1" source="etrXNk_KjkjhekKQuepQ-25" edge="1">
          <mxGeometry relative="1" as="geometry">
            <mxPoint x="520" y="260" as="targetPoint" />
            <Array as="points">
              <mxPoint x="560" y="285" />
              <mxPoint x="560" y="260" />
            </Array>
          </mxGeometry>
        </mxCell>
        <mxCell id="etrXNk_KjkjhekKQuepQ-25" value="Baton?" style="rhombus;whiteSpace=wrap;html=1;" parent="1" vertex="1">
          <mxGeometry x="490" y="270" width="60" height="30" as="geometry" />
        </mxCell>
        <mxCell id="etrXNk_KjkjhekKQuepQ-28" value="No" style="text;html=1;align=center;verticalAlign=middle;resizable=0;points=[];autosize=1;strokeColor=none;fillColor=none;" parent="1" vertex="1">
          <mxGeometry x="530" y="260" width="40" height="30" as="geometry" />
        </mxCell>
        <mxCell id="etrXNk_KjkjhekKQuepQ-35" value="&lt;font style=&quot;font-size: 8px;&quot;&gt;Yes&lt;/font&gt;" style="text;html=1;align=center;verticalAlign=middle;resizable=0;points=[];autosize=1;strokeColor=none;fillColor=none;" parent="1" vertex="1">
          <mxGeometry x="515" y="290" width="40" height="30" as="geometry" />
        </mxCell>
        <mxCell id="etrXNk_KjkjhekKQuepQ-39" style="edgeStyle=orthogonalEdgeStyle;rounded=0;orthogonalLoop=1;jettySize=auto;html=1;exitX=0.5;exitY=1;exitDx=0;exitDy=0;entryX=0.5;entryY=0;entryDx=0;entryDy=0;" parent="1" source="etrXNk_KjkjhekKQuepQ-36" target="etrXNk_KjkjhekKQuepQ-37" edge="1">
          <mxGeometry relative="1" as="geometry" />
        </mxCell>
        <mxCell id="etrXNk_KjkjhekKQuepQ-47" style="edgeStyle=orthogonalEdgeStyle;rounded=0;orthogonalLoop=1;jettySize=auto;html=1;exitX=1;exitY=0.5;exitDx=0;exitDy=0;entryX=0;entryY=0.5;entryDx=0;entryDy=0;" parent="1" source="etrXNk_KjkjhekKQuepQ-36" target="etrXNk_KjkjhekKQuepQ-41" edge="1">
          <mxGeometry relative="1" as="geometry" />
        </mxCell>
        <mxCell id="etrXNk_KjkjhekKQuepQ-36" value="Bullish&lt;br&gt;Flag?" style="rhombus;whiteSpace=wrap;html=1;" parent="1" vertex="1">
          <mxGeometry x="284.94" y="520" width="70" height="60" as="geometry" />
        </mxCell>
        <mxCell id="etrXNk_KjkjhekKQuepQ-40" style="edgeStyle=orthogonalEdgeStyle;rounded=0;orthogonalLoop=1;jettySize=auto;html=1;exitX=0.5;exitY=1;exitDx=0;exitDy=0;entryX=0.5;entryY=0;entryDx=0;entryDy=0;" parent="1" source="etrXNk_KjkjhekKQuepQ-37" target="etrXNk_KjkjhekKQuepQ-16" edge="1">
          <mxGeometry relative="1" as="geometry" />
        </mxCell>
        <mxCell id="etrXNk_KjkjhekKQuepQ-45" style="edgeStyle=orthogonalEdgeStyle;rounded=0;orthogonalLoop=1;jettySize=auto;html=1;exitX=1;exitY=0.5;exitDx=0;exitDy=0;entryX=0;entryY=0.5;entryDx=0;entryDy=0;" parent="1" source="etrXNk_KjkjhekKQuepQ-37" target="etrXNk_KjkjhekKQuepQ-43" edge="1">
          <mxGeometry relative="1" as="geometry" />
        </mxCell>
        <mxCell id="etrXNk_KjkjhekKQuepQ-37" value="Bearish&lt;br&gt;Flag?" style="rhombus;whiteSpace=wrap;html=1;" parent="1" vertex="1">
          <mxGeometry x="279.94" y="600" width="80" height="60" as="geometry" />
        </mxCell>
        <mxCell id="etrXNk_KjkjhekKQuepQ-53" style="edgeStyle=orthogonalEdgeStyle;rounded=0;orthogonalLoop=1;jettySize=auto;html=1;exitX=1;exitY=0.5;exitDx=0;exitDy=0;entryX=1;entryY=0.5;entryDx=0;entryDy=0;" parent="1" source="etrXNk_KjkjhekKQuepQ-41" target="etrXNk_KjkjhekKQuepQ-16" edge="1">
          <mxGeometry relative="1" as="geometry">
            <Array as="points">
              <mxPoint x="489.94" y="550" />
              <mxPoint x="489.94" y="690" />
            </Array>
          </mxGeometry>
        </mxCell>
        <mxCell id="etrXNk_KjkjhekKQuepQ-41" value="Set Status.txt" style="shape=parallelogram;perimeter=parallelogramPerimeter;whiteSpace=wrap;html=1;fixedSize=1;" parent="1" vertex="1">
          <mxGeometry x="374.94" y="538.75" width="110" height="22.5" as="geometry" />
        </mxCell>
        <mxCell id="etrXNk_KjkjhekKQuepQ-54" style="edgeStyle=orthogonalEdgeStyle;rounded=0;orthogonalLoop=1;jettySize=auto;html=1;exitX=1;exitY=0.5;exitDx=0;exitDy=0;" parent="1" source="etrXNk_KjkjhekKQuepQ-43" edge="1">
          <mxGeometry relative="1" as="geometry">
            <mxPoint x="489.94" y="630" as="targetPoint" />
          </mxGeometry>
        </mxCell>
        <mxCell id="etrXNk_KjkjhekKQuepQ-43" value="Set Status.txt" style="shape=parallelogram;perimeter=parallelogramPerimeter;whiteSpace=wrap;html=1;fixedSize=1;" parent="1" vertex="1">
          <mxGeometry x="374.94" y="618.75" width="110" height="22.5" as="geometry" />
        </mxCell>
        <mxCell id="etrXNk_KjkjhekKQuepQ-48" value="Yes" style="text;html=1;align=center;verticalAlign=middle;resizable=0;points=[];autosize=1;strokeColor=none;fillColor=none;" parent="1" vertex="1">
          <mxGeometry x="344.94" y="530" width="40" height="30" as="geometry" />
        </mxCell>
        <mxCell id="etrXNk_KjkjhekKQuepQ-49" value="Yes" style="text;html=1;align=center;verticalAlign=middle;resizable=0;points=[];autosize=1;strokeColor=none;fillColor=none;" parent="1" vertex="1">
          <mxGeometry x="344.94" y="610" width="40" height="30" as="geometry" />
        </mxCell>
        <mxCell id="etrXNk_KjkjhekKQuepQ-51" value="No" style="text;html=1;align=center;verticalAlign=middle;resizable=0;points=[];autosize=1;strokeColor=none;fillColor=none;" parent="1" vertex="1">
          <mxGeometry x="309.94" y="650" width="40" height="30" as="geometry" />
        </mxCell>
        <mxCell id="etrXNk_KjkjhekKQuepQ-52" value="No" style="text;html=1;align=center;verticalAlign=middle;resizable=0;points=[];autosize=1;strokeColor=none;fillColor=none;" parent="1" vertex="1">
          <mxGeometry x="309.94" y="570" width="40" height="30" as="geometry" />
        </mxCell>
        <mxCell id="etrXNk_KjkjhekKQuepQ-59" style="edgeStyle=orthogonalEdgeStyle;rounded=0;orthogonalLoop=1;jettySize=auto;html=1;exitX=1;exitY=0.5;exitDx=0;exitDy=0;fontSize=8;" parent="1" source="etrXNk_KjkjhekKQuepQ-55" target="etrXNk_KjkjhekKQuepQ-56" edge="1">
          <mxGeometry relative="1" as="geometry" />
        </mxCell>
        <mxCell id="etrXNk_KjkjhekKQuepQ-55" value="&lt;font style=&quot;font-size: 8px;&quot;&gt;Stop Loss&lt;br&gt;/Profit Take&lt;/font&gt;" style="rhombus;whiteSpace=wrap;html=1;" parent="1" vertex="1">
          <mxGeometry x="274.93" y="450" width="90.03" height="50" as="geometry" />
        </mxCell>
        <mxCell id="etrXNk_KjkjhekKQuepQ-60" style="edgeStyle=orthogonalEdgeStyle;rounded=0;orthogonalLoop=1;jettySize=auto;html=1;exitX=1;exitY=0.5;exitDx=0;exitDy=0;fontSize=8;" parent="1" source="etrXNk_KjkjhekKQuepQ-56" edge="1">
          <mxGeometry relative="1" as="geometry">
            <mxPoint x="490" y="549.9999999999998" as="targetPoint" />
            <Array as="points">
              <mxPoint x="490" y="475" />
            </Array>
          </mxGeometry>
        </mxCell>
        <mxCell id="etrXNk_KjkjhekKQuepQ-56" value="Set Status.txt" style="shape=parallelogram;perimeter=parallelogramPerimeter;whiteSpace=wrap;html=1;fixedSize=1;" parent="1" vertex="1">
          <mxGeometry x="385" y="463.75" width="110" height="22.5" as="geometry" />
        </mxCell>
        <mxCell id="etrXNk_KjkjhekKQuepQ-57" value="Yes" style="text;html=1;align=center;verticalAlign=middle;resizable=0;points=[];autosize=1;strokeColor=none;fillColor=none;" parent="1" vertex="1">
          <mxGeometry x="354.94" y="450" width="40" height="30" as="geometry" />
        </mxCell>
        <mxCell id="etrXNk_KjkjhekKQuepQ-64" style="edgeStyle=orthogonalEdgeStyle;rounded=0;orthogonalLoop=1;jettySize=auto;html=1;exitX=0.5;exitY=1;exitDx=0;exitDy=0;entryX=0.5;entryY=0;entryDx=0;entryDy=0;fontSize=10;" parent="1" edge="1">
          <mxGeometry relative="1" as="geometry">
            <mxPoint x="520" y="370" as="sourcePoint" />
            <mxPoint x="520" y="380" as="targetPoint" />
          </mxGeometry>
        </mxCell>
        <mxCell id="etrXNk_KjkjhekKQuepQ-61" value="&lt;font style=&quot;font-size: 10px;&quot;&gt;Get Portfolio Data&lt;/font&gt;" style="shape=parallelogram;perimeter=parallelogramPerimeter;whiteSpace=wrap;html=1;fixedSize=1;fontSize=8;" parent="1" vertex="1">
          <mxGeometry x="460" y="360" width="120" height="10" as="geometry" />
        </mxCell>
        <mxCell id="etrXNk_KjkjhekKQuepQ-66" style="edgeStyle=orthogonalEdgeStyle;rounded=0;orthogonalLoop=1;jettySize=auto;html=1;exitX=0.5;exitY=1;exitDx=0;exitDy=0;entryX=0.5;entryY=0;entryDx=0;entryDy=0;fontSize=10;" parent="1" target="etrXNk_KjkjhekKQuepQ-65" edge="1">
          <mxGeometry relative="1" as="geometry">
            <mxPoint x="520" y="390" as="sourcePoint" />
          </mxGeometry>
        </mxCell>
        <mxCell id="etrXNk_KjkjhekKQuepQ-63" value="Get Positional Data" style="shape=parallelogram;perimeter=parallelogramPerimeter;whiteSpace=wrap;html=1;fixedSize=1;fontSize=10;" parent="1" vertex="1">
          <mxGeometry x="460" y="380" width="120" height="10" as="geometry" />
        </mxCell>
        <mxCell id="etrXNk_KjkjhekKQuepQ-69" style="edgeStyle=orthogonalEdgeStyle;rounded=0;orthogonalLoop=1;jettySize=auto;html=1;exitX=0.5;exitY=1;exitDx=0;exitDy=0;entryX=0.5;entryY=0;entryDx=0;entryDy=0;fontSize=10;" parent="1" source="etrXNk_KjkjhekKQuepQ-65" target="etrXNk_KjkjhekKQuepQ-68" edge="1">
          <mxGeometry relative="1" as="geometry" />
        </mxCell>
        <mxCell id="etrXNk_KjkjhekKQuepQ-65" value="Get Prices" style="shape=parallelogram;perimeter=parallelogramPerimeter;whiteSpace=wrap;html=1;fixedSize=1;fontSize=10;" parent="1" vertex="1">
          <mxGeometry x="480" y="400" width="80" height="10" as="geometry" />
        </mxCell>
        <mxCell id="etrXNk_KjkjhekKQuepQ-71" style="edgeStyle=orthogonalEdgeStyle;rounded=0;orthogonalLoop=1;jettySize=auto;html=1;exitX=0.5;exitY=1;exitDx=0;exitDy=0;entryX=0.5;entryY=0;entryDx=0;entryDy=0;fontSize=10;" parent="1" source="etrXNk_KjkjhekKQuepQ-68" target="etrXNk_KjkjhekKQuepQ-70" edge="1">
          <mxGeometry relative="1" as="geometry" />
        </mxCell>
        <mxCell id="etrXNk_KjkjhekKQuepQ-68" value="Pass Baton" style="shape=parallelogram;perimeter=parallelogramPerimeter;whiteSpace=wrap;html=1;fixedSize=1;fontSize=10;" parent="1" vertex="1">
          <mxGeometry x="475" y="420" width="90" height="10" as="geometry" />
        </mxCell>
        <mxCell id="etrXNk_KjkjhekKQuepQ-73" style="edgeStyle=orthogonalEdgeStyle;rounded=0;orthogonalLoop=1;jettySize=auto;html=1;exitX=1;exitY=0.5;exitDx=0;exitDy=0;entryX=1;entryY=0.5;entryDx=0;entryDy=0;fontSize=10;" parent="1" source="etrXNk_KjkjhekKQuepQ-70" target="etrXNk_KjkjhekKQuepQ-24" edge="1">
          <mxGeometry relative="1" as="geometry">
            <Array as="points">
              <mxPoint x="535" y="450" />
              <mxPoint x="630" y="450" />
              <mxPoint x="630" y="240" />
            </Array>
          </mxGeometry>
        </mxCell>
        <mxCell id="etrXNk_KjkjhekKQuepQ-70" value="Pause" style="rounded=0;whiteSpace=wrap;html=1;fontSize=10;" parent="1" vertex="1">
          <mxGeometry x="505" y="440" width="30" height="16.25" as="geometry" />
        </mxCell>
        <mxCell id="etrXNk_KjkjhekKQuepQ-84" style="edgeStyle=orthogonalEdgeStyle;rounded=0;orthogonalLoop=1;jettySize=auto;html=1;exitX=0;exitY=0.5;exitDx=0;exitDy=0;entryX=1;entryY=0.5;entryDx=0;entryDy=0;fontSize=8;" parent="1" source="etrXNk_KjkjhekKQuepQ-74" target="etrXNk_KjkjhekKQuepQ-81" edge="1">
          <mxGeometry relative="1" as="geometry" />
        </mxCell>
        <mxCell id="etrXNk_KjkjhekKQuepQ-85" style="edgeStyle=orthogonalEdgeStyle;rounded=0;orthogonalLoop=1;jettySize=auto;html=1;exitX=1;exitY=0.5;exitDx=0;exitDy=0;entryX=0;entryY=0.5;entryDx=0;entryDy=0;fontSize=8;" parent="1" source="etrXNk_KjkjhekKQuepQ-74" target="etrXNk_KjkjhekKQuepQ-82" edge="1">
          <mxGeometry relative="1" as="geometry" />
        </mxCell>
        <mxCell id="etrXNk_KjkjhekKQuepQ-90" style="edgeStyle=orthogonalEdgeStyle;rounded=0;orthogonalLoop=1;jettySize=auto;html=1;exitX=0.5;exitY=1;exitDx=0;exitDy=0;entryX=0.5;entryY=0;entryDx=0;entryDy=0;fontSize=8;" parent="1" source="etrXNk_KjkjhekKQuepQ-74" target="etrXNk_KjkjhekKQuepQ-61" edge="1">
          <mxGeometry relative="1" as="geometry" />
        </mxCell>
        <mxCell id="etrXNk_KjkjhekKQuepQ-74" value="Status?" style="rhombus;whiteSpace=wrap;html=1;fontSize=10;" parent="1" vertex="1">
          <mxGeometry x="490" y="310" width="60" height="30" as="geometry" />
        </mxCell>
        <mxCell id="etrXNk_KjkjhekKQuepQ-77" value="0" style="text;html=1;align=center;verticalAlign=middle;resizable=0;points=[];autosize=1;strokeColor=none;fillColor=none;fontSize=8;" parent="1" vertex="1">
          <mxGeometry x="515" y="340" width="30" height="20" as="geometry" />
        </mxCell>
        <mxCell id="etrXNk_KjkjhekKQuepQ-78" value="1" style="text;html=1;align=center;verticalAlign=middle;resizable=0;points=[];autosize=1;strokeColor=none;fillColor=none;fontSize=8;" parent="1" vertex="1">
          <mxGeometry x="470" y="305" width="30" height="20" as="geometry" />
        </mxCell>
        <mxCell id="etrXNk_KjkjhekKQuepQ-79" value="2" style="text;html=1;align=center;verticalAlign=middle;resizable=0;points=[];autosize=1;strokeColor=none;fillColor=none;fontSize=8;" parent="1" vertex="1">
          <mxGeometry x="540" y="305" width="30" height="20" as="geometry" />
        </mxCell>
        <mxCell id="etrXNk_KjkjhekKQuepQ-88" style="edgeStyle=orthogonalEdgeStyle;rounded=0;orthogonalLoop=1;jettySize=auto;html=1;exitX=0.5;exitY=1;exitDx=0;exitDy=0;entryX=0;entryY=0.75;entryDx=0;entryDy=0;fontSize=8;" parent="1" source="etrXNk_KjkjhekKQuepQ-81" target="etrXNk_KjkjhekKQuepQ-61" edge="1">
          <mxGeometry relative="1" as="geometry" />
        </mxCell>
        <mxCell id="etrXNk_KjkjhekKQuepQ-81" value="Buy" style="whiteSpace=wrap;html=1;fontSize=8;" parent="1" vertex="1">
          <mxGeometry x="450" y="315" width="25" height="20" as="geometry" />
        </mxCell>
        <mxCell id="etrXNk_KjkjhekKQuepQ-86" style="edgeStyle=orthogonalEdgeStyle;rounded=0;orthogonalLoop=1;jettySize=auto;html=1;exitX=0.5;exitY=1;exitDx=0;exitDy=0;entryX=1;entryY=0;entryDx=0;entryDy=0;fontSize=8;" parent="1" source="etrXNk_KjkjhekKQuepQ-82" target="etrXNk_KjkjhekKQuepQ-61" edge="1">
          <mxGeometry relative="1" as="geometry" />
        </mxCell>
        <mxCell id="etrXNk_KjkjhekKQuepQ-82" value="Sell" style="whiteSpace=wrap;html=1;fontSize=8;" parent="1" vertex="1">
          <mxGeometry x="565" y="315" width="30" height="20" as="geometry" />
        </mxCell>
        <mxCell id="etrXNk_KjkjhekKQuepQ-91" value="" style="html=1;verticalLabelPosition=bottom;labelBackgroundColor=#ffffff;verticalAlign=top;shadow=0;dashed=0;strokeWidth=2;shape=mxgraph.ios7.misc.star;fillColor=#0080f0;strokeColor=none;sketch=0;fontSize=8;" parent="1" vertex="1">
          <mxGeometry x="495" y="53" width="12" height="12" as="geometry" />
        </mxCell>
        <mxCell id="etrXNk_KjkjhekKQuepQ-93" value="" style="verticalLabelPosition=bottom;html=1;verticalAlign=top;strokeWidth=1;align=center;outlineConnect=0;dashed=0;outlineConnect=0;shape=mxgraph.aws3d.file;aspect=fixed;strokeColor=#292929;fontSize=8;" parent="1" vertex="1">
          <mxGeometry x="415" y="260" width="19.76" height="45.3" as="geometry" />
        </mxCell>
        <mxCell id="etrXNk_KjkjhekKQuepQ-94" value="Baton.txt" style="text;html=1;align=center;verticalAlign=middle;resizable=0;points=[];autosize=1;strokeColor=none;fillColor=none;fontSize=8;" parent="1" vertex="1">
          <mxGeometry x="380" y="295" width="60" height="20" as="geometry" />
        </mxCell>
        <mxCell id="etrXNk_KjkjhekKQuepQ-99" value="" style="rhombus;whiteSpace=wrap;html=1;fontSize=8;" parent="1" vertex="1">
          <mxGeometry x="57.5" y="80" width="95" height="30" as="geometry" />
        </mxCell>
        <mxCell id="etrXNk_KjkjhekKQuepQ-100" value="Decision Making" style="text;html=1;align=center;verticalAlign=middle;resizable=0;points=[];autosize=1;strokeColor=none;fillColor=none;fontSize=8;" parent="1" vertex="1">
          <mxGeometry x="65" y="85" width="80" height="20" as="geometry" />
        </mxCell>
        <mxCell id="etrXNk_KjkjhekKQuepQ-101" value="instruction" style="whiteSpace=wrap;html=1;fontSize=8;" parent="1" vertex="1">
          <mxGeometry x="75" y="120" width="60" height="20" as="geometry" />
        </mxCell>
        <mxCell id="etrXNk_KjkjhekKQuepQ-102" value="Input / Output" style="shape=parallelogram;perimeter=parallelogramPerimeter;whiteSpace=wrap;html=1;fixedSize=1;fontSize=8;" parent="1" vertex="1">
          <mxGeometry x="60" y="160" width="90" height="20" as="geometry" />
        </mxCell>
        <mxCell id="2VW4hvVGtqt4MNvg6fAc-12" style="edgeStyle=orthogonalEdgeStyle;rounded=0;orthogonalLoop=1;jettySize=auto;html=1;entryX=0.5;entryY=0;entryDx=0;entryDy=0;" edge="1" parent="1" source="2VW4hvVGtqt4MNvg6fAc-2" target="3NaMu6--Hrhzoy9EJNJ2-7">
          <mxGeometry relative="1" as="geometry" />
        </mxCell>
        <mxCell id="2VW4hvVGtqt4MNvg6fAc-2" value="&lt;font style=&quot;font-size: 10px;&quot;&gt;get desired # stocks&lt;/font&gt;" style="shape=parallelogram;perimeter=parallelogramPerimeter;whiteSpace=wrap;html=1;fixedSize=1;" vertex="1" parent="1">
          <mxGeometry x="360" y="32" width="120" height="18" as="geometry" />
        </mxCell>
        <mxCell id="2VW4hvVGtqt4MNvg6fAc-17" value="" style="endArrow=classic;html=1;rounded=0;entryX=0.5;entryY=0;entryDx=0;entryDy=0;" edge="1" parent="1" target="3NaMu6--Hrhzoy9EJNJ2-8">
          <mxGeometry width="50" height="50" relative="1" as="geometry">
            <mxPoint x="420" y="85" as="sourcePoint" />
            <mxPoint x="470" y="35" as="targetPoint" />
          </mxGeometry>
        </mxCell>
      </root>
    </mxGraphModel>
  </diagram>
</mxfile>
